<svg width="135" height="135" viewBox="0 0 135 135" fill="none" xmlns="http://www.w3.org/2000/svg">
<rect x="1.5" y="1.5" width="132" height="132" rx="16.5" fill="#1F4160" stroke="#1F4160" stroke-width="3"/>
<path d="M17 65H15H17ZM35.75 65H33.75H35.75ZM67 96.25V98.25V96.25ZM98.25 65H100.25H98.25ZM67 13C53.2087 13 39.9823 18.4786 30.2304 28.2304L33.0589 31.0589C42.0606 22.0571 54.2696 17 67 17V13ZM30.2304 28.2304C20.4786 37.9823 15 51.2087 15 65H19C19 52.2696 24.0571 40.0606 33.0589 31.0589L30.2304 28.2304ZM15 65C15 78.7913 20.4786 92.0177 30.2304 101.77L33.0589 98.9411C24.0571 89.9394 19 77.7304 19 65H15ZM30.2304 101.77C39.9823 111.521 53.2087 117 67 117V113C54.2696 113 42.0606 107.943 33.0589 98.9411L30.2304 101.77ZM67 117C80.7913 117 94.0177 111.521 103.77 101.77L100.941 98.9411C91.9394 107.943 79.7304 113 67 113V117ZM103.77 101.77C113.521 92.0177 119 78.7913 119 65H115C115 77.7304 109.943 89.9394 100.941 98.9411L103.77 101.77ZM119 65C119 51.2087 113.521 37.9823 103.77 28.2304L100.941 31.0589C109.943 40.0606 115 52.2696 115 65H119ZM103.77 28.2304C94.0177 18.4786 80.7913 13 67 13V17C79.7304 17 91.9394 22.0571 100.941 31.0589L103.77 28.2304ZM67 31.75C58.1816 31.75 49.7243 35.2531 43.4887 41.4887L46.3171 44.3171C51.8026 38.8317 59.2424 35.75 67 35.75V31.75ZM43.4887 41.4887C37.2531 47.7243 33.75 56.1816 33.75 65H37.75C37.75 57.2424 40.8317 49.8026 46.3171 44.3171L43.4887 41.4887ZM33.75 65C33.75 73.8184 37.2531 82.2757 43.4887 88.5113L46.3171 85.6829C40.8317 80.1974 37.75 72.7576 37.75 65H33.75ZM43.4887 88.5113C49.7243 94.7469 58.1816 98.25 67 98.25V94.25C59.2424 94.25 51.8026 91.1683 46.3171 85.6829L43.4887 88.5113ZM67 98.25C75.8184 98.25 84.2757 94.7469 90.5113 88.5113L87.6829 85.6829C82.1974 91.1683 74.7576 94.25 67 94.25V98.25ZM90.5113 88.5113C96.7469 82.2757 100.25 73.8184 100.25 65H96.25C96.25 72.7576 93.1683 80.1974 87.6829 85.6829L90.5113 88.5113ZM100.25 65C100.25 56.1816 96.7469 47.7243 90.5113 41.4887L87.6829 44.3171C93.1683 49.8026 96.25 57.2424 96.25 65H100.25ZM90.5113 41.4887C84.2757 35.2531 75.8184 31.75 67 31.75V35.75C74.7576 35.75 82.1974 38.8317 87.6829 44.3171L90.5113 41.4887ZM47.0006 38.4383C36.2327 47.0526 30.1696 57.4186 29.0707 69.5064C27.9785 81.521 31.816 94.9591 40.2635 109.742L43.7365 107.758C35.5174 93.3743 32.0632 80.7706 33.0543 69.8686C34.0387 59.0397 39.434 49.6141 49.4994 41.5617L47.0006 38.4383ZM86.9994 91.5617C97.7589 82.9541 103.829 72.7033 104.929 60.7196C106.022 48.8118 102.181 35.4839 93.7365 20.7063L90.2635 22.6909C98.4859 37.08 101.936 49.5694 100.946 60.3539C99.9627 71.0627 94.5744 80.3792 84.5006 88.4383L86.9994 91.5617Z" fill="white"/>
</svg>
