<svg width="63" height="74" viewBox="0 0 63 74" fill="none" xmlns="http://www.w3.org/2000/svg">
<path d="M60.8186 67.1562C57.4183 62.187 55.6057 56.344 55.6106 50.3678V27.9026C55.6921 20.7907 52.9611 13.9223 47.9861 8.72714C43.0111 3.53201 36.1756 0.41058 28.9027 0.0127238C25.2134 -0.098095 21.5389 0.515904 18.0973 1.81828C14.6557 3.12065 11.5172 5.08485 8.86801 7.59428C6.21883 10.1037 4.11301 13.1072 2.67555 16.4265C1.23808 19.7459 0.498258 23.3133 0.500003 26.9172V37.0064C0.511853 46.8141 4.50748 56.2169 11.6104 63.152C18.7133 70.0872 28.3435 73.9884 38.3886 74H59.0551C59.6786 74.0001 60.2906 73.8349 60.8255 73.522C61.3605 73.2092 61.7984 72.7604 62.0926 72.2235C62.3868 71.6867 62.5262 71.0819 62.4959 70.4738C62.4657 69.8656 62.2669 69.2769 61.9208 68.7704L60.8186 67.1562ZM38.3886 67.2739C30.1697 67.265 22.2901 64.0732 16.4785 58.3989C10.6669 52.7246 7.39795 45.0311 7.38883 37.0064V26.9172C7.38883 21.5656 9.56619 16.4331 13.4419 12.6489C17.3176 8.86477 22.5742 6.73884 28.0553 6.73884C28.2689 6.73884 28.4824 6.73884 28.696 6.73884C34.182 7.0722 39.3252 9.4581 43.0552 13.4001C46.7852 17.3421 48.8149 22.5365 48.7218 27.9026V50.3678C48.7162 56.2483 50.1511 62.0449 52.9068 67.2739H38.3886ZM21.1665 33.6433C21.1665 34.5352 20.8036 35.3906 20.1576 36.0213C19.5117 36.652 18.6356 37.0064 17.7221 37.0064C16.8086 37.0064 15.9325 36.652 15.2865 36.0213C14.6406 35.3906 14.2777 34.5352 14.2777 33.6433V26.9172C14.2777 26.0252 14.6406 25.1698 15.2865 24.5391C15.9325 23.9084 16.8086 23.5541 17.7221 23.5541C18.6356 23.5541 19.5117 23.9084 20.1576 24.5391C20.8036 25.1698 21.1665 26.0252 21.1665 26.9172V33.6433ZM41.833 26.9172V33.6433C41.833 34.5352 41.4701 35.3906 40.8241 36.0213C40.1782 36.652 39.3021 37.0064 38.3886 37.0064C37.4751 37.0064 36.599 36.652 35.953 36.0213C35.3071 35.3906 34.9442 34.5352 34.9442 33.6433V26.9172C34.9442 26.0252 35.3071 25.1698 35.953 24.5391C36.599 23.9084 37.4751 23.5541 38.3886 23.5541C39.3021 23.5541 40.1782 23.9084 40.8241 24.5391C41.4701 25.1698 41.833 26.0252 41.833 26.9172ZM34.9442 43.7325C34.9442 44.6244 34.5813 45.4798 33.9353 46.1105C33.2894 46.7412 32.4133 47.0955 31.4997 47.0955H24.6109C23.6974 47.0955 22.8213 46.7412 22.1753 46.1105C21.5294 45.4798 21.1665 44.6244 21.1665 43.7325C21.1665 42.8405 21.5294 41.9851 22.1753 41.3544C22.8213 40.7237 23.6974 40.3694 24.6109 40.3694H31.4997C32.4133 40.3694 33.2894 40.7237 33.9353 41.3544C34.5813 41.9851 34.9442 42.8405 34.9442 43.7325Z" fill="#1F4160"/>
</svg>
