<svg width="66" height="66" viewBox="0 0 66 66" fill="none" xmlns="http://www.w3.org/2000/svg">
<path d="M2 33H0.75H2ZM13.625 33H12.375H13.625ZM33 52.375V53.625V52.375ZM52.375 33H53.625H52.375ZM33 0.75C24.4468 0.75 16.2439 4.14776 10.1958 10.1958L11.9636 11.9636C17.5428 6.38437 25.1098 3.25 33 3.25V0.75ZM10.1958 10.1958C4.14776 16.2439 0.75 24.4468 0.75 33H3.25C3.25 25.1098 6.38437 17.5428 11.9636 11.9636L10.1958 10.1958ZM0.75 33C0.75 41.5532 4.14776 49.7561 10.1958 55.8042L11.9636 54.0364C6.38437 48.4572 3.25 40.8902 3.25 33H0.75ZM10.1958 55.8042C16.2439 61.8522 24.4468 65.25 33 65.25V62.75C25.1098 62.75 17.5428 59.6156 11.9636 54.0364L10.1958 55.8042ZM33 65.25C41.5532 65.25 49.7561 61.8522 55.8042 55.8042L54.0364 54.0364C48.4572 59.6156 40.8902 62.75 33 62.75V65.25ZM55.8042 55.8042C61.8522 49.7561 65.25 41.5532 65.25 33H62.75C62.75 40.8902 59.6156 48.4572 54.0364 54.0364L55.8042 55.8042ZM65.25 33C65.25 24.4468 61.8522 16.2439 55.8042 10.1958L54.0364 11.9636C59.6156 17.5428 62.75 25.1098 62.75 33H65.25ZM55.8042 10.1958C49.7561 4.14776 41.5532 0.75 33 0.75V3.25C40.8902 3.25 48.4572 6.38437 54.0364 11.9636L55.8042 10.1958ZM33 12.375C27.5299 12.375 22.2839 14.548 18.4159 18.4159L20.1837 20.1837C23.5828 16.7846 28.193 14.875 33 14.875V12.375ZM18.4159 18.4159C14.548 22.2839 12.375 27.5299 12.375 33H14.875C14.875 28.193 16.7846 23.5828 20.1837 20.1837L18.4159 18.4159ZM12.375 33C12.375 38.4701 14.548 43.7161 18.4159 47.5841L20.1837 45.8163C16.7846 42.4172 14.875 37.807 14.875 33H12.375ZM18.4159 47.5841C22.2839 51.452 27.5299 53.625 33 53.625V51.125C28.193 51.125 23.5828 49.2154 20.1837 45.8163L18.4159 47.5841ZM33 53.625C38.4701 53.625 43.7161 51.452 47.5841 47.5841L45.8163 45.8163C42.4172 49.2154 37.807 51.125 33 51.125V53.625ZM47.5841 47.5841C51.452 43.7161 53.625 38.4701 53.625 33H51.125C51.125 37.807 49.2154 42.4172 45.8163 45.8163L47.5841 47.5841ZM53.625 33C53.625 27.5299 51.452 22.2839 47.5841 18.4159L45.8163 20.1837C49.2154 23.5828 51.125 28.193 51.125 33H53.625ZM47.5841 18.4159C43.7161 14.548 38.4701 12.375 33 12.375V14.875C37.807 14.875 42.4172 16.7846 45.8163 20.1837L47.5841 18.4159ZM20.5941 16.5239C13.9163 21.8662 10.1555 28.2955 9.47388 35.7931C8.79644 43.2449 11.1767 51.5786 16.4147 60.7452L18.5853 59.5048C13.49 50.5881 11.3494 42.7759 11.9636 36.0194C12.5737 29.3087 15.9171 23.4671 22.1559 18.4761L20.5941 16.5239ZM45.4059 49.4761C52.0785 44.138 55.8436 37.7801 56.526 30.3471C57.2041 22.9614 54.8213 14.696 49.5853 5.53295L47.4147 6.7733C52.512 15.6936 54.6501 23.4349 54.0365 30.1185C53.4272 36.7548 50.0882 42.5287 43.8441 47.5239L45.4059 49.4761Z" fill="#1C3E5D"/>
</svg>
